<?xml version="1.0" encoding="utf-8"?>
<!-- Generator: Adobe Illustrator 21.0.2, SVG Export Plug-In . SVG Version: 6.00 Build 0)  -->
<svg version="1.1" baseProfile="basic" id="Layer_1"
	 xmlns="http://www.w3.org/2000/svg" xmlns:xlink="http://www.w3.org/1999/xlink" x="0px" y="0px" width="1280px" height="326px"
	 viewBox="0 0 1280 326" xml:space="preserve">
<style type="text/css">
	.st0{fill:#386EEB;}
</style>
<g id="white">
	<path class="st0" d="M959.2,99.4h-8.5v8.8c0,2.2,0.9,4.8,5.3,4.8h8.8v-8.5C964.7,102.1,963.8,99.4,959.2,99.4z"/>
	<path class="st0" d="M958.4,127.3h-7v71.4c0,3,1.9,5,4.7,5.3v0.3h7.9v-71.6C964,129.2,962.1,127.3,958.4,127.3z"/>
	<path class="st0" d="M539.4,183.2c-2.9-2.9-6.7-2.3-9-0.3c-9.3,7.6-17.5,10.7-28.5,10.7c-21.8,0-39-18.4-39-41.9
		c0-23.6,16.7-41.4,39-41.4c10.6,0,19.5,3.3,28,10.5c2.1,1.8,5.5,2.5,8-0.3c2.2-2.2,4.5-4.7,4.5-4.7l0.4-0.4l-0.4-0.4
		c-9-8.6-20.1-16.5-40.2-16.5c-29.3,0-52.3,23.6-52.3,53.8c0,30.5,22.4,53.5,52.1,53.5c16.5,0,28.8-5.5,41-18.2l0.4-0.4l-0.3-0.4
		C542.9,186.7,542.1,185.6,539.4,183.2z"/>
	<path class="st0" d="M727.4,125.4c-10.9,0-19.4,4.6-26.1,14c-3-5.8-9.9-14.5-24.3-14.5c-12.4,0-19.1,6.3-23.9,13v-5.4
		c0-3.7-2.1-5.8-5.8-5.8h-6.8v76.9h7c3.4,0,5.3-0.9,5.3-5.3v-38.3c0-13.4,8.6-23.1,20.4-23.1c11.8,0,18.9,8.2,18.9,21.9v39.6
		c0,3.6,2,5.6,5.6,5.6h6.8v-44.1c0-15.8,10.2-22.9,20.4-22.9c12,0,18.9,8.1,18.9,22.1v38.6c0,3.1,0.7,6.3,5.8,6.3h6.6v-47.4
		C756.2,137.2,745.2,125.4,727.4,125.4z"/>
	<path class="st0" d="M816.7,125.6c-11.5,0-20.8,5.1-28.3,15.5v-7.9c0-4-2.2-6.1-6.3-6.1H776v94.6c0,3.6,1.8,5.6,5.3,5.6h7v-36.6
		c7.6,10,16.8,14.8,28.3,14.8c17.8,0,36.7-14,36.7-39.9C853.4,139.6,834.5,125.6,816.7,125.6z M840.6,165.5
		c0,16.8-10.7,28.6-26.1,28.6c-13.2,0-26.8-10.8-26.8-28.8c0-17.9,13.6-28.6,26.8-28.6C827.4,136.7,840.6,146.6,840.6,165.5z"/>
	<path class="st0" d="M1045.6,132.7v6.5c-5.2-6.7-14.3-14.1-28.8-14.1c-9.2,0-18.3,3.6-25,9.7c-7.2,6.7-11.2,16.2-11.2,26.7
		c0,23.5,18.7,36.2,36.2,36.2c11.4,0,21-4.8,29.1-14.7v7.1c0,16.7-9.8,26.3-26.8,26.3c-8.2,0-16.1-2.1-23.4-6.1
		c-2-1.2-3.4-1.8-4.6-1.8c-1.5,0-2.9,0.8-3.9,2.5c-2,3.2-2.7,4.7-2.7,4.7l-0.2,0.5l0.4,0.3c10.1,7.1,21.8,10.7,34.7,10.7
		c24.8,0,39-13.7,39-37.5v-63.2h-6.8C1049,126.8,1045.6,128.9,1045.6,132.7z M1046.1,162.1c0,15.7-13.8,25.1-27.1,25.1
		c-14.6,0-25.6-10.9-25.6-25.4c0-14.5,10.8-25.1,25.6-25.1C1032.1,136.7,1046.1,145.6,1046.1,162.1z"/>
	<path class="st0" d="M1116.5,125.6c-10.8,0-19.3,4.5-25.4,13.4v-6.6c0-3.7-2.9-5.3-5.8-5.3h-6.8V204h12.6l-0.3-43.9
		c0-13.6,9.1-23.1,22.1-23.1c12.8,0,20.4,8.3,20.4,22.1v39.6c0,3.6,1.6,5.3,5.1,5.3h7.5v-47.6C1146,137.7,1134.4,125.6,1116.5,125.6
		z"/>
	<path class="st0" d="M899.8,126.1c-9.7,0-18.2,1.9-27.7,6.2l-0.5,0.2l0.2,0.5c0,0,1.3,3.5,2.2,6c1,2.5,3.9,2.6,6.2,1.8
		c6.5-2.5,12.2-3.7,18.6-3.7c14.1,0,21.9,7.1,21.9,19.9v18.3c0,11.5-10.3,19.9-24.6,19.9c-8.9,0-18.4-4.5-18.4-14.5
		c0-9.3,7.6-14.5,21.4-14.5h6.2c3.7,0,5.6-1.7,5.6-5.3v-4.3h-12.7c-21,0-33,8.9-33,24.4c0,11.7,9,24.4,28.8,24.4
		c10.8,0,20.1-4.1,26.8-12v5.2c0,3.5,1.7,5.1,5.3,5.1h6.8v-46.9C932.6,137,920.8,126.1,899.8,126.1z"/>
	<path class="st0" d="M588.4,126.1c-11.9,0-20.4,3-27.7,6.2l-0.5,0.2l0.2,0.5c0,0,1.3,3.5,2.2,6c1,2.5,3.9,2.6,6.2,1.8
		c6.5-2.5,12.2-3.7,18.6-3.7c14.1,0,21.9,7.1,21.9,19.9v18.3c0,11.5-10.3,19.9-24.6,19.9c-8.9,0-18.4-4.5-18.4-14.5
		c0-9.3,7.6-14.5,21.4-14.5h6.1c3.7,0,5.6-1.7,5.6-5.3v-4.3h-12.6c-21,0-33,8.9-33,24.4c0,11.7,9,24.4,28.8,24.4
		c10.8,0,20.1-4.1,26.8-12v5.2c0,3.5,1.7,5.1,5.3,5.1h6.8v-46.9C621.2,137,609.5,126.1,588.4,126.1z"/>
	<path class="st0" d="M1273.1,154.7c-2-1.5-72.5-50.6-75.5-52.7l-1-0.7v12.1c0,3.8,2,5.3,4.6,7.1l0.4,0.3c3.4,2.5,53.7,37.4,60.4,42
		c-6.7,4.7-57.6,40-60.8,42c-3.8,2.6-4.2,4.2-4.2,7.7l0,13c0,0,74.5-53.3,76.2-54.5l0,0c3.4-2.5,4.2-5.6,4.2-7.8l0-1.4
		C1277.4,159,1275.9,156.6,1273.1,154.7z"/>
	<path class="st0" d="M1229.1,168.3c2,0,3.9-0.8,6-2.3c2.5-1.7,4.7-3.2,4.7-3.2l0.8-0.5l-0.7-0.5c-0.3-0.2-33.2-23-36.6-25.2
		c-1.6-1.1-3.4-1.4-4.8-0.6c-1.3,0.7-2.1,2.1-2.1,3.9v7.7l0.3,0.2c0.2,0.2,22.8,15.9,27.2,18.8
		C1225.6,167.7,1227.3,168.3,1229.1,168.3z"/>
	<path class="st0" d="M180,186.4c-2.6-2.6-6.1-1.1-7.8,0.2c-5.7,5.1-12.1,7.8-19.1,7.8c-15.2,0-27.1-12.7-27.1-28.8
		c0-16.2,11.6-28.8,26.3-28.8c8.3,0,14,3.7,18.4,7.3c3.3,2.7,5.8,2.9,8.3,0.5c2-2,4.2-4.5,4.2-4.5l0.4-0.4l-0.4-0.4
		c-8.7-9.4-18.2-13.6-30.6-13.6c-22.1,0-39.4,17.7-39.4,40.2c0,22,17.7,39.9,39.4,39.9c16.2,0,25.1-8,31.1-15.1l0.4-0.5l-0.5-0.4
		C183.7,189.8,182.4,188.8,180,186.4z"/>
	<path class="st0" d="M262.2,99.4h-8.5v8.8c0,2.2,0.9,4.8,5.3,4.8h8.8v-7.8C267.7,101.7,265.6,99.4,262.2,99.4z"/>
	<path class="st0" d="M261.2,127.3h-7v71.4c0,3,1.9,5,4.7,5.3v0.3h7.9v-71.6C266.8,129.2,264.8,127.3,261.2,127.3z"/>
	<path class="st0" d="M342.5,131.4c-1.1,2.7-19.9,48.2-23.4,56.7c-3.5-8.6-22.3-54-23.2-56.7c-1.3-3-3.6-4.6-7-4.6H280l0.4,0.9
		c0.3,0.7,30.2,69.8,31.4,72.5c1.3,3.2,3.3,3.8,6.5,3.8h1.5c3.1,0,5-1.2,6.3-4.1c1.2-2.7,31.1-71.3,31.4-72l0.4-0.9h-8.6
		C345.9,127.1,343.7,128.5,342.5,131.4z"/>
	<path class="st0" d="M420,161h-29.5c-3.3,0-5.3,2-5.3,5.3v4.8l0.6,0c14.1-0.2,30.4-0.2,37.2-0.2c4,0,7-1.1,9-3.3
		c2.1-2.2,3-5.6,2.7-9.8c-1.8-19.4-16-32.5-35.2-32.5c-21.1,0-37,17.3-37,40.2c0,22.9,16.5,40.2,38.5,40.2
		c12.9,0,22.6-4.4,31.6-14.3l0.4-0.5l-0.5-0.4c0,0-1.7-1.5-3.7-3.2c-3-2.4-5.8-1.5-7.2,0c-5.6,5.1-12.2,7.5-20.4,7.5
		c-14,0-24.5-10.1-26.1-25.2c0,0-0.2-1.7-0.2-3.9c0-2.4,0.2-4.1,0.2-4.1c1.5-14.8,11.3-25.2,23.9-25.2c12.7,0,21.9,8.5,22.9,21.3
		c0.2,1.2,0.1,2.2-0.3,2.7C421.2,160.8,420.7,161,420,161z"/>
	<path class="st0" d="M64.4,103.2L64.4,103.2c-1.5-3-3.2-4.1-6.5-4.1h-3c-2.5,0-4.6,1.4-6,3.8c-1,2.2-44.6,99.2-45,100.2L3.5,204
		h8.1c3.3,0,5.6-1.5,7.5-5.1c1.4-3,8.8-19.3,10-21.9h31.8c3.9,0,6.6-2.4,6.6-6.1v-5.6H34.1l22.5-50.5c4.6,10.5,36.2,82.1,37.5,85.1
		c1.9,4.1,6.7,4.1,8.2,4.1h7.4l-0.4-0.9C109,202.2,65.9,106.4,64.4,103.2z"/>
	<path class="st0" d="M235.8,193.1c-1.1-0.9-2.9-1-4.7-0.5c-2.8,0.8-4.6,1.2-7.3,1.2c-8,0-12-4-12-12l-0.2-43.4h24v-5.3
		c0-4-3.4-5.8-6.6-5.8h-17.4v-21.9c0-3.5-2.5-5.8-6.3-5.8h-6.1v84c0,14.1,7.8,21.9,21.9,21.9c5.4,0,11.7-1.3,15.6-3.3l0.3-0.1l0-0.3
		c0-0.1,0.3-2.3,0.3-5C237.3,194.7,236.5,193.6,235.8,193.1z"/>
</g>
</svg>
