<?xml version="1.0" encoding="utf-8"?>
<!-- Generator: Adobe Illustrator 21.0.2, SVG Export Plug-In . SVG Version: 6.00 Build 0)  -->
<svg version="1.1" baseProfile="basic" id="Layer_1"
	 xmlns="http://www.w3.org/2000/svg" xmlns:xlink="http://www.w3.org/1999/xlink" x="0px" y="0px" width="288px" height="288px"
	 viewBox="0 0 288 288" xml:space="preserve">
<style type="text/css">
	.st0{fill:#386EEB;}
</style>
<g>
	<path class="st0" d="M126.7,155c4.4,0,8.8-1.7,13.5-5.2c5.5-3.9,10.5-7.2,10.5-7.2l1.7-1.1l-1.7-1.2C150,139.8,76.5,88.8,68.9,84
		c-3.5-2.5-7.5-3.1-10.8-1.5c-3,1.5-4.7,4.7-4.7,8.7v17.3l0.6,0.4c0.5,0.4,51,35.5,60.9,42C118.9,153.6,122.8,155,126.7,155z"/>
	<path class="st0" d="M225.2,124.5c-4.4-3.3-162-113.2-168.7-117.8l-2.2-1.5v27c0,8.6,4.5,11.8,10.2,15.9c0,0,120.9,84.3,135.9,94.7
		c-15.1,10.5-128.9,89.4-136.1,94c-8.6,5.7-9.5,9.5-9.5,17.2v29c0,0,166.7-119.3,170.3-121.9l0,0c7.6-5.7,9.3-12.5,9.4-17.4l0-3.1
		C234.6,134.2,231.4,128.8,225.2,124.5z"/>
</g>
</svg>
