<?xml version="1.0" encoding="UTF-8"?>
<svg width="48px" height="48px" viewBox="0 0 48 48" version="1.1" xmlns="http://www.w3.org/2000/svg" xmlns:xlink="http://www.w3.org/1999/xlink">
    <!-- Generator: Sketch 50.2 (55047) - http://www.bohemiancoding.com/sketch -->
    <title>icon-grid</title>
    <desc>Created with Sketch.</desc>
    <defs></defs>
    <g id="Pages" stroke="none" stroke-width="1" fill="none" fill-rule="evenodd">
        <g id="0_Home" transform="translate(-240.000000, -1284.000000)">
            <g id="sections" transform="translate(240.000000, 914.000000)">
                <g id="Group-2-Copy-3" transform="translate(0.000000, 370.000000)">
                    <g id="Group-3">
                        <g id="icon-grid">
                            <g id="icon" fill="#FDECB2">
                                <circle id="Oval" cx="24" cy="24" r="24"></circle>
                            </g>
                            <g id="grid-three-up" transform="translate(15.000000, 15.000000)" fill="#DEAA00" fill-rule="nonzero">
                                <path d="M0,0 L0,4.5 L4.5,4.5 L4.5,0 L0,0 Z M6.75,0 L6.75,4.5 L11.25,4.5 L11.25,0 L6.75,0 Z M13.5,0 L13.5,4.5 L18,4.5 L18,0 L13.5,0 Z M0,6.75 L0,11.25 L4.5,11.25 L4.5,6.75 L0,6.75 Z M6.75,6.75 L6.75,11.25 L11.25,11.25 L11.25,6.75 L6.75,6.75 Z M13.5,6.75 L13.5,11.25 L18,11.25 L18,6.75 L13.5,6.75 Z M0,13.5 L0,18 L4.5,18 L4.5,13.5 L0,13.5 Z M6.75,13.5 L6.75,18 L11.25,18 L11.25,13.5 L6.75,13.5 Z M13.5,13.5 L13.5,18 L18,18 L18,13.5 L13.5,13.5 Z" id="Shape"></path>
                            </g>
                        </g>
                    </g>
                </g>
            </g>
        </g>
    </g>
</svg>