<?xml version="1.0" encoding="UTF-8"?>
<svg width="48px" height="48px" viewBox="0 0 48 48" version="1.1" xmlns="http://www.w3.org/2000/svg" xmlns:xlink="http://www.w3.org/1999/xlink">
    <!-- Generator: Sketch 50.2 (55047) - http://www.bohemiancoding.com/sketch -->
    <title>icon-colors</title>
    <desc>Created with Sketch.</desc>
    <defs></defs>
    <g id="Pages" stroke="none" stroke-width="1" fill="none" fill-rule="evenodd">
        <g id="0_Home" transform="translate(-896.000000, -1103.000000)">
            <g id="sections" transform="translate(240.000000, 914.000000)">
                <g id="Group-2-Copy-2" transform="translate(656.000000, 189.000000)">
                    <g id="Group-3">
                        <g id="icon-colors">
                            <circle id="Oval" fill="#6AE6C9" cx="24" cy="24" r="24"></circle>
                            <path d="M23.5693431,15 L22.8248175,15.7445255 C22.5839416,15.9854015 17,21.6350365 17,26.4306569 C17,30.0437956 19.9562044,33 23.5693431,33 C27.1824818,33 30.1386861,30.0437956 30.1386861,26.4306569 C30.1386861,21.6569343 24.5547445,15.9854015 24.3138686,15.7445255 L23.5693431,15 Z M20.2846715,25.3357664 C20.8978102,25.3357664 21.379562,25.8175182 21.379562,26.4306569 C21.379562,27.6350365 22.3649635,28.620438 23.5693431,28.620438 C24.1824818,28.620438 24.6642336,29.1021898 24.6642336,29.7153285 C24.6642336,30.3284672 24.1824818,30.810219 23.5693431,30.810219 C21.1605839,30.810219 19.189781,28.8394161 19.189781,26.4306569 C19.189781,25.8175182 19.6715328,25.3357664 20.2846715,25.3357664 Z" id="Shape" fill="#0F8065" fill-rule="nonzero"></path>
                        </g>
                    </g>
                </g>
            </g>
        </g>
    </g>
</svg>