<?xml version="1.0" encoding="UTF-8"?>
<svg width="48px" height="48px" viewBox="0 0 48 48" version="1.1" xmlns="http://www.w3.org/2000/svg" xmlns:xlink="http://www.w3.org/1999/xlink">
    <!-- Generator: Sketch 51 (57462) - http://www.bohemiancoding.com/sketch -->
    <title>icon-illustrations</title>
    <desc>Created with Sketch.</desc>
    <defs></defs>
    <g id="Pages" stroke="none" stroke-width="1" fill="none" fill-rule="evenodd">
        <g id="0_Home" transform="translate(-568.000000, -1284.000000)">
            <g id="sections" transform="translate(240.000000, 914.000000)">
                <g id="Group-2-Copy-5" transform="translate(328.000000, 370.000000)">
                    <g id="Group-3">
                        <g id="icon-illustrations">
                            <circle id="Oval" fill="#FFE1CB" cx="24" cy="24" r="24"></circle>
                            <path d="M21.9512317,25.1834438 C23.4930599,25.1834438 24.8165562,26.5069401 24.8165562,28.0487683 C24.8165562,31.3552582 22.1718144,34 18.8653245,34 C17.9829936,34 16.8823309,33.7794173 16,33.1176691 C17.5418282,32.0170064 18.8653245,30.2523446 18.8653245,28.0487683 C18.8653245,26.5069401 20.1888208,25.1834438 21.9512317,25.1834438 Z M33.9842441,17.2942353 L27.9294736,25.8024259 L27.0471427,26.2435913 C26.6059772,24.6995123 25.2824809,23.3782669 23.7406527,22.9371014 L24.1818182,22.0570214 L32.6900088,16 L33.9842441,17.2942353 Z" id="Combined-Shape" fill="#FF8730" fill-rule="nonzero"></path>
                        </g>
                    </g>
                </g>
            </g>
        </g>
    </g>
</svg>