<?xml version="1.0" encoding="UTF-8"?>
<svg width="48px" height="48px" viewBox="0 0 48 48" version="1.1" xmlns="http://www.w3.org/2000/svg" xmlns:xlink="http://www.w3.org/1999/xlink">
    <!-- Generator: Sketch 50.2 (55047) - http://www.bohemiancoding.com/sketch -->
    <title>icon</title>
    <desc>Created with Sketch.</desc>
    <defs></defs>
    <g id="Pages" stroke="none" stroke-width="1" fill="none" fill-rule="evenodd">
        <g id="0_Home" transform="translate(-240.000000, -1103.000000)">
            <g id="sections" transform="translate(240.000000, 914.000000)">
                <g id="Group-2" transform="translate(0.000000, 189.000000)">
                    <g id="Group-3">
                        <g id="icon">
                            <circle id="Oval" fill="#E3EBFC" cx="24" cy="24" r="24"></circle>
                            <path d="M15.0224719,28.2808989 L15.0224719,32.7752809 C15.0224719,32.8876404 15.1123596,32.9775281 15.2247191,32.9775281 L32.7752809,32.9775281 C32.8876404,32.9775281 32.9775281,32.8876404 32.9775281,32.7752809 L32.9775281,28.2808989 C32.6179775,28.4157303 32.258427,28.4831461 31.8539326,28.4831461 L16.1235955,28.4831461 C15.7191011,28.4831461 15.3595506,28.3932584 15,28.2808989 L15.0224719,28.2808989 Z M21.7640449,19.494382 L26.258427,19.494382 L26.258427,17.247191 L21.7640449,17.247191 L21.7640449,19.494382 Z M21.7640449,15 C20.5280899,15 19.5168539,16.011236 19.5168539,17.247191 L19.5168539,19.494382 L15.2247191,19.494382 C15.0898876,19.494382 15.0224719,19.5842697 15.0224719,19.6966292 L15.0224719,25.1123596 C15.0224719,25.741573 15.5168539,26.2359551 16.1460674,26.2359551 L31.8764045,26.2359551 C32.505618,26.2359551 33,25.741573 33,25.1123596 L33,19.6966292 C33,19.5617978 32.9101124,19.494382 32.7977528,19.494382 L28.505618,19.494382 L28.505618,17.247191 C28.505618,16.011236 27.494382,15 26.258427,15 L21.7640449,15 Z" id="Fill-1" fill="#5884EA"></path>
                        </g>
                    </g>
                </g>
            </g>
        </g>
    </g>
</svg>