<?xml version="1.0" encoding="UTF-8"?>
<svg width="48px" height="48px" viewBox="0 0 48 48" version="1.1" xmlns="http://www.w3.org/2000/svg" xmlns:xlink="http://www.w3.org/1999/xlink">
    <!-- Generator: Sketch 50.2 (55047) - http://www.bohemiancoding.com/sketch -->
    <title>icon-typography</title>
    <desc>Created with Sketch.</desc>
    <defs></defs>
    <g id="Pages" stroke="none" stroke-width="1" fill="none" fill-rule="evenodd">
        <g id="0_Home" transform="translate(-568.000000, -1103.000000)">
            <g id="sections" transform="translate(240.000000, 914.000000)">
                <g id="Group-2-Copy" transform="translate(328.000000, 189.000000)">
                    <g id="Group-3">
                        <g id="icon-typography">
                            <circle id="Oval" fill="#FCDEE7" cx="24" cy="24" r="24"></circle>
                            <g id="text" transform="translate(15.000000, 15.000000)" fill="#F56E94" fill-rule="nonzero">
                                <path d="M0,0 L0,4.5 L1.125,4.5 C1.125,3.2625 2.1375,2.25 3.375,2.25 L6.75,2.25 L6.75,14.625 C6.75,15.255 6.255,15.75 5.625,15.75 L4.5,15.75 L4.5,18 L13.5,18 L13.5,15.75 L12.375,15.75 C11.745,15.75 11.25,15.255 11.25,14.625 L11.25,2.25 L14.625,2.25 C15.8625,2.25 16.875,3.2625 16.875,4.5 L18,4.5 L18,0 L0,0 Z" id="Shape"></path>
                            </g>
                        </g>
                    </g>
                </g>
            </g>
        </g>
    </g>
</svg>