<?xml version="1.0" encoding="UTF-8"?>
<svg width="48px" height="48px" viewBox="0 0 48 48" version="1.1" xmlns="http://www.w3.org/2000/svg" xmlns:xlink="http://www.w3.org/1999/xlink">
    <!-- Generator: Sketch 50.2 (55047) - http://www.bohemiancoding.com/sketch -->
    <title>icon-library</title>
    <desc>Created with Sketch.</desc>
    <defs></defs>
    <g id="Pages" stroke="none" stroke-width="1" fill="none" fill-rule="evenodd">
        <g id="0_Home" transform="translate(-568.000000, -1284.000000)">
            <g id="sections" transform="translate(240.000000, 914.000000)">
                <g id="Group-2-Copy-4" transform="translate(328.000000, 370.000000)">
                    <g id="Group-3">
                        <g id="icon-library">
                            <circle id="Oval" fill="#EAE0FE" cx="24" cy="24" r="24"></circle>
                            <path d="M16,29.625 C16,31.48125 17.51875,33 19.375,33 L31.75,33 L31.75,30.75 L19.375,30.75 C18.7,30.75 18.25,30.3 18.25,29.625 C18.25,28.95 18.7,28.5 19.375,28.5 L31.75,28.5 L31.75,16.125 C31.75,15.45 31.3,15 30.625,15 L29.5,15 L29.5,21.75 L27.25,19.5 L25,21.75 L25,15 L17.95525,15 C16.87525,15 16,15.87525 16,16.95525 L16,29.625 Z" id="Shape" fill="#9159FC" fill-rule="nonzero"></path>
                        </g>
                    </g>
                </g>
            </g>
        </g>
    </g>
</svg>